<?xml version="1.0" standalone="no"?>
<!DOCTYPE svg PUBLIC "-//W3C//DTD SVG 20010904//EN"
 "http://www.w3.org/TR/2001/REC-SVG-20010904/DTD/svg10.dtd">
<svg version="1.0" xmlns="http://www.w3.org/2000/svg"
 width="900.000000pt" height="900.000000pt" viewBox="0 0 900.000000 900.000000"
 preserveAspectRatio="xMidYMid meet">

<g transform="translate(0.000000,900.000000) scale(0.100000,-0.100000)"
fill="#000000" stroke="none">
<path d="M4185 8975 c-874 -124 -1596 -611 -2018 -1360 -121 -215 -217 -466
-271 -707 -77 -346 -79 -839 -5 -1226 213 -1121 893 -2313 2043 -3581 151
-167 410 -429 509 -515 l68 -60 150 150 c639 635 1285 1463 1733 2222 357 605
606 1221 715 1767 53 268 76 667 52 911 -64 641 -335 1201 -792 1639 -453 435
-889 651 -1504 745 -183 28 -533 36 -680 15z m590 -366 c230 -21 495 -96 717
-202 707 -337 1221 -1049 1309 -1816 15 -135 6 -541 -15 -671 -102 -623 -339
-1227 -754 -1920 -304 -508 -698 -1040 -1164 -1572 -133 -152 -366 -398 -377
-398 -11 0 -415 451 -592 660 -535 633 -936 1233 -1235 1845 -336 689 -492
1305 -470 1865 13 349 81 628 226 925 190 391 510 740 895 975 199 122 507
244 737 290 189 39 438 45 723 19z"/>
<path d="M4265 7626 c-336 -54 -672 -296 -854 -615 -102 -178 -140 -318 -148
-546 -9 -247 20 -408 103 -584 178 -377 503 -629 911 -707 119 -23 350 -23
458 0 476 102 847 449 970 907 118 443 -10 905 -338 1215 -108 103 -211 173
-349 239 -172 82 -245 97 -478 101 -128 2 -223 -1 -275 -10z m484 -366 c68
-17 218 -96 299 -157 276 -211 398 -571 311 -923 -28 -110 -56 -174 -124 -276
-125 -187 -358 -344 -560 -376 -99 -15 -329 -4 -435 22 -136 33 -241 102 -386
251 -178 185 -223 296 -232 575 -6 193 6 267 64 385 97 199 199 311 381 418
87 51 158 79 232 91 71 11 391 4 450 -10z"/>
<path d="M2315 2590 c-470 -74 -1068 -228 -1420 -364 -241 -94 -487 -233 -626
-353 -199 -171 -294 -381 -260 -575 28 -165 125 -316 285 -444 377 -304 1124
-554 2086 -698 740 -110 1421 -153 2280 -143 488 6 621 11 1055 42 700 50
1407 165 1935 315 760 217 1216 508 1323 845 33 104 30 255 -6 347 -104 267
-421 498 -962 701 -285 107 -839 244 -1300 321 -229 38 -313 31 -365 -32 -50
-61 -57 -151 -16 -214 30 -46 113 -69 496 -138 576 -104 1117 -267 1420 -427
500 -265 526 -495 85 -752 -550 -321 -1626 -549 -2980 -633 -283 -18 -1434
-18 -1725 0 -1009 61 -1838 204 -2465 427 -329 117 -555 237 -685 365 -107
105 -133 184 -91 277 82 179 450 386 976 546 183 56 579 151 760 182 240 42
450 86 481 101 51 24 77 68 81 133 4 69 -27 136 -76 165 -46 27 -143 29 -286
6z"/>
</g>
</svg>
