<?xml version="1.0" standalone="no"?>
<!DOCTYPE svg PUBLIC "-//W3C//DTD SVG 20010904//EN"
 "http://www.w3.org/TR/2001/REC-SVG-20010904/DTD/svg10.dtd">
<svg version="1.0" xmlns="http://www.w3.org/2000/svg"
 width="900.000000pt" height="512.000000pt" viewBox="0 0 900.000000 512.000000"
 preserveAspectRatio="xMidYMid meet">

<g transform="translate(0.000000,512.000000) scale(0.100000,-0.100000)"
fill="#000000" stroke="none">
<path d="M2440 4465 c-217 -47 -408 -227 -477 -450 -17 -57 -18 -129 -18
-1460 l0 -1400 21 -62 c58 -169 178 -309 325 -382 154 -76 -3 -71 2209 -71
1700 0 1995 2 2055 15 179 37 353 171 434 335 76 154 72 67 69 1603 -3 1369
-3 1372 -24 1434 -58 169 -178 309 -325 382 -154 76 3 71 -2214 70 -1658 0
-2001 -3 -2055 -14z m4017 -311 c19 -5 -137 -142 -967 -854 l-990 -849 -988
847 c-717 614 -984 849 -973 854 20 8 3887 10 3918 2z m-3487 -814 c349 -298
641 -548 648 -555 11 -10 -108 -152 -664 -789 -588 -672 -680 -773 -686 -755
-11 29 -5 2661 6 2677 6 11 14 8 35 -11 14 -13 312 -268 661 -567z m3768 -754
c1 -728 -1 -1333 -6 -1345 -6 -18 -100 85 -682 751 -371 424 -675 774 -675
779 0 4 302 266 670 582 434 373 674 572 680 566 7 -7 11 -468 13 -1333z
m-2590 -256 c161 -138 276 -230 300 -238 50 -18 114 -7 154 26 18 15 143 121
277 236 l243 208 23 -23 c12 -13 325 -369 694 -792 549 -627 668 -769 654
-775 -23 -9 -3962 -9 -3985 0 -15 6 114 158 674 798 380 435 694 789 698 788
4 -2 124 -104 268 -228z"/>
</g>
</svg>
