<svg xmlns="http://www.w3.org/2000/svg" width="578" height="571" viewBox="0 0 578 571" version="1.1"><path d="M 250 1.111 C 238.116 2.459, 217.579 6.662, 204.150 10.494 C 144.552 27.501, 88.859 66.923, 52.273 118 C 25.480 155.406, 7.349 201.655, 1.521 247.458 C -0.529 263.575, -0.529 303.425, 1.521 319.542 C 8.111 371.336, 28.710 419.629, 62.073 461.500 C 72.396 474.455, 94.778 496.702, 107.500 506.652 C 148.645 538.831, 195.863 558.653, 248 565.634 C 265.097 567.923, 301.903 567.923, 319 565.634 C 372.303 558.497, 419.506 538.388, 461.500 504.927 C 474.455 494.604, 496.702 472.222, 506.652 459.500 C 533.098 425.685, 552.258 385.438, 560.923 345.500 C 565.937 322.385, 567.307 309.084, 567.307 283.500 C 567.307 257.916, 565.937 244.615, 560.923 221.500 C 552.258 181.562, 533.098 141.315, 506.652 107.500 C 496.702 94.778, 474.455 72.396, 461.500 62.073 C 420.213 29.175, 372.735 8.679, 322.159 1.921 C 310.883 0.414, 302.361 0.028, 282.641 0.130 C 268.814 0.201, 254.125 0.642, 250 1.111 M 257 34.477 C 221.629 38.752, 193.356 47.593, 164.500 63.400 C 142.504 75.449, 127.475 86.675, 108.142 105.496 C 67.930 144.642, 44.430 191.042, 35.353 249.213 C 33.263 262.606, 32.985 298.514, 34.858 313 C 40.711 358.267, 56.992 398.688, 83.644 434.124 C 92.859 446.376, 115.669 469.977, 126.868 478.848 C 163.069 507.522, 201.844 524.255, 249.213 531.647 C 262.606 533.737, 298.514 534.015, 313 532.142 C 358.449 526.265, 398.591 510.056, 434.500 483.083 C 446.734 473.893, 469.832 451.505, 478.949 440 C 507.491 403.984, 524.094 365.499, 531.676 317.787 C 533.954 303.452, 533.954 263.548, 531.676 249.213 C 524.089 201.468, 507.510 163.055, 478.897 126.929 C 469.958 115.643, 447.700 94.118, 435.108 84.582 C 399.929 57.940, 360.458 41.507, 317 35.410 C 301.719 33.265, 270.975 32.787, 257 34.477 M 219.496 92.998 C 205.150 100.533, 192.604 108.635, 190.847 111.500 C 186.965 117.830, 187.374 118.796, 211.842 161.052 C 240.663 210.824, 241.946 212.915, 245.122 215.262 C 250.657 219.352, 254.263 218.135, 277.673 204.276 C 287.100 198.695, 290 195.294, 290 189.817 C 290 187.770, 257.037 129.012, 241.136 102.715 C 233.194 89.581, 229.315 87.840, 219.496 92.998 M 177 127.692 C 158.477 139.453, 150.295 146.702, 144.628 156.372 C 132.098 177.753, 137.856 225.795, 159.508 280.500 C 186.291 348.172, 231.884 414.006, 278.007 451.608 C 306.415 474.768, 327.185 481.267, 348.556 473.685 C 357.593 470.479, 368.459 465.522, 372.041 462.971 L 374.882 460.948 355.825 427.724 C 338.842 398.116, 321.993 368.897, 321.544 368.274 C 321.454 368.149, 319.158 368.885, 316.440 369.908 C 305.001 374.217, 296.771 373.462, 283.500 366.885 C 256.292 353.401, 229.536 314.615, 220.459 275.500 C 215.192 252.807, 218.992 232.170, 230.210 222.543 L 234.500 218.861 230.919 212.154 C 221.047 193.667, 181.468 126.007, 180.553 126.052 C 179.974 126.081, 178.375 126.819, 177 127.692 M 358.500 333.567 C 345.945 340.298, 334.223 347.611, 331.250 350.568 C 325.308 356.477, 325.843 358.147, 343.626 389.207 C 370.699 436.495, 380.129 452.428, 382.482 454.860 C 383.973 456.401, 386.279 457.376, 389.132 457.671 C 393.064 458.078, 394.714 457.443, 405.672 451.311 C 423.467 441.354, 426.650 438.899, 428.115 434.010 C 429.660 428.853, 429.779 429.109, 409.763 394.500 C 384.982 351.653, 375.330 335.600, 373.188 333.665 C 369.739 330.552, 364.193 330.515, 358.500 333.567" stroke="none" fill="#050505" fill-rule="evenodd"/><path d="M 0.108 128.250 C 0.215 255.063, 0.236 256.360, 1.980 244 C 8.330 199.008, 26.053 154.606, 52.273 118 C 88.859 66.923, 144.552 27.501, 204.150 10.494 C 217.579 6.662, 238.116 2.459, 250 1.111 C 254.472 0.603, 205.517 0.207, 128.750 0.130 L 0 0 0.108 128.250 M 323.500 2.016 C 373.232 8.918, 420.735 29.591, 461.500 62.073 C 474.455 72.396, 496.702 94.778, 506.652 107.500 C 538.831 148.645, 558.653 195.863, 565.634 248 C 567.923 265.097, 567.923 301.903, 565.634 319 C 558.497 372.303, 538.388 419.506, 504.927 461.500 C 494.604 474.455, 472.222 496.702, 459.500 506.652 C 418.355 538.831, 371.137 558.653, 319 565.634 C 301.903 567.923, 265.097 567.923, 248 565.634 C 194.697 558.497, 147.494 538.388, 105.500 504.927 C 92.545 494.604, 70.298 472.222, 60.348 459.500 C 28.880 419.263, 9.006 372.787, 1.980 323 C 0.237 310.646, 0.215 312.026, 0.108 440.750 L 0 571 288.941 571 C 492.135 571, 578.077 570.684, 578.540 569.936 C 578.902 569.350, 578.863 440.875, 578.455 284.436 L 577.713 -0 444.106 0.106 C 310.977 0.211, 310.546 0.218, 323.500 2.016 M 257 34.477 C 221.629 38.752, 193.356 47.593, 164.500 63.400 C 142.504 75.449, 127.475 86.675, 108.142 105.496 C 67.930 144.642, 44.430 191.042, 35.353 249.213 C 33.263 262.606, 32.985 298.514, 34.858 313 C 40.711 358.267, 56.992 398.688, 83.644 434.124 C 92.859 446.376, 115.669 469.977, 126.868 478.848 C 163.069 507.522, 201.844 524.255, 249.213 531.647 C 262.606 533.737, 298.514 534.015, 313 532.142 C 358.449 526.265, 398.591 510.056, 434.500 483.083 C 446.734 473.893, 469.832 451.505, 478.949 440 C 507.491 403.984, 524.094 365.499, 531.676 317.787 C 533.954 303.452, 533.954 263.548, 531.676 249.213 C 524.089 201.468, 507.510 163.055, 478.897 126.929 C 469.958 115.643, 447.700 94.118, 435.108 84.582 C 399.929 57.940, 360.458 41.507, 317 35.410 C 301.719 33.265, 270.975 32.787, 257 34.477 M 219.496 92.998 C 205.150 100.533, 192.604 108.635, 190.847 111.500 C 186.965 117.830, 187.374 118.796, 211.842 161.052 C 240.663 210.824, 241.946 212.915, 245.122 215.262 C 250.657 219.352, 254.263 218.135, 277.673 204.276 C 287.100 198.695, 290 195.294, 290 189.817 C 290 187.770, 257.037 129.012, 241.136 102.715 C 233.194 89.581, 229.315 87.840, 219.496 92.998 M 177 127.692 C 158.477 139.453, 150.295 146.702, 144.628 156.372 C 132.098 177.753, 137.856 225.795, 159.508 280.500 C 186.291 348.172, 231.884 414.006, 278.007 451.608 C 306.415 474.768, 327.185 481.267, 348.556 473.685 C 357.593 470.479, 368.459 465.522, 372.041 462.971 L 374.882 460.948 355.825 427.724 C 338.842 398.116, 321.993 368.897, 321.544 368.274 C 321.454 368.149, 319.158 368.885, 316.440 369.908 C 305.001 374.217, 296.771 373.462, 283.500 366.885 C 256.292 353.401, 229.536 314.615, 220.459 275.500 C 215.192 252.807, 218.992 232.170, 230.210 222.543 L 234.500 218.861 230.919 212.154 C 221.047 193.667, 181.468 126.007, 180.553 126.052 C 179.974 126.081, 178.375 126.819, 177 127.692 M 0.485 441 C 0.485 512.775, 0.604 542.137, 0.750 506.250 C 0.895 470.362, 0.895 411.637, 0.750 375.750 C 0.604 339.862, 0.485 369.225, 0.485 441 M 358.500 333.567 C 345.945 340.298, 334.223 347.611, 331.250 350.568 C 325.308 356.477, 325.843 358.147, 343.626 389.207 C 370.699 436.495, 380.129 452.428, 382.482 454.860 C 383.973 456.401, 386.279 457.376, 389.132 457.671 C 393.064 458.078, 394.714 457.443, 405.672 451.311 C 423.467 441.354, 426.650 438.899, 428.115 434.010 C 429.660 428.853, 429.779 429.109, 409.763 394.500 C 384.982 351.653, 375.330 335.600, 373.188 333.665 C 369.739 330.552, 364.193 330.515, 358.500 333.567" stroke="none" fill="#fbfbfb" fill-rule="evenodd"/></svg>